<?xml version="1.0" standalone="no"?><!DOCTYPE svg PUBLIC "-//W3C//DTD SVG 1.1//EN" "http://www.w3.org/Graphics/SVG/1.1/DTD/svg11.dtd"><svg t="1665579427071" class="icon" viewBox="0 0 1024 1024" version="1.1" xmlns="http://www.w3.org/2000/svg" p-id="7848" data-spm-anchor-id="a313x.7781069.0.i5" xmlns:xlink="http://www.w3.org/1999/xlink" width="200" height="200"><path d="M506.88-0.046548m72.407734 72.407734l362.038672 362.038672q72.407734 72.407734 0 144.815469l-362.038672 362.038672q-72.407734 72.407734-144.815468 0l-362.038672-362.038672q-72.407734-72.407734 0-144.815469l362.038672-362.038672q72.407734-72.407734 144.815468 0Z" fill="#FFBFC4" p-id="7849" data-spm-anchor-id="a313x.7781069.0.i1" class="selected"></path><path d="M761.6 407.2448l176.64 173.4656L614.4 902.0928l-256-269.5168c11.3664-29.1328 28.672-46.3872 51.8656-51.8656 153.3952-36.0448 244.4288 39.0144 256.8192 23.3984 2.2016-2.7648 33.6896-68.4032 94.5152-196.864z" fill="#FF929B" p-id="7850"></path><path d="M723.7632 354.2528s0-1.6384 0 0a151.04 151.04 0 0 0-212.1728-6.5536c-60.6208-55.6032-153.088-53.9648-210.5344 4.9152-58.9824 60.5184-60.6208 158.6176-1.5872 219.136l1.5872 1.6384 177.0496 179.9168a47.5648 47.5648 0 0 0 34.304 14.6944 47.5648 47.5648 0 0 0 34.304-14.6944l176.9984-179.9168a157.7472 157.7472 0 0 0 0-219.136zM666.3168 481.792c-4.7616 0-7.936-3.2256-7.936-8.192 0-29.3888-23.9616-53.9648-52.6848-53.9648-4.7616 0-7.936-3.2256-7.936-8.1408s3.1744-8.192 7.9872-8.192c18.2272-0.1536 35.7376 7.2192 48.64 20.48 12.8512 13.2096 20.0704 31.1296 19.968 49.8688 0 4.9152-3.2256 8.192-8.0384 8.192z" fill="#FFFFFF" p-id="7851" data-spm-anchor-id="a313x.7781069.0.i2" class="selected"></path></svg>