<?xml version="1.0" standalone="no"?><!DOCTYPE svg PUBLIC "-//W3C//DTD SVG 1.1//EN" "http://www.w3.org/Graphics/SVG/1.1/DTD/svg11.dtd"><svg t="1665579469233" class="icon" viewBox="0 0 1024 1024" version="1.1" xmlns="http://www.w3.org/2000/svg" p-id="7989" xmlns:xlink="http://www.w3.org/1999/xlink" width="200" height="200"><path d="M0 0h1024v1024H0z" fill="#FFFFFF" p-id="7990"></path><path d="M563.2 29.5424l340.992 196.9152a102.4 102.4 0 0 1 51.2 88.6784v393.728a102.4 102.4 0 0 1-51.2 88.6784L563.2 994.4576a102.4 102.4 0 0 1-102.4 0l-340.992-196.9152a102.4 102.4 0 0 1-51.2-88.6784v-393.728a102.4 102.4 0 0 1 51.2-88.6784L460.8 29.5424a102.4 102.4 0 0 1 102.4 0z" fill="#FFA0A0" p-id="7991"></path><path d="M716.8 490.0864L955.0848 665.6v51.7632a102.4 102.4 0 0 1-50.3808 88.2176L707.9424 921.6 460.8 712.9088l76.8-115.5584L716.8 490.0864z" fill="#FB7474" p-id="7992"></path><path d="M716.4416 521.728c-2.7648 22.7328-20.2752 40.96-42.9568 44.544l-111.0016 17.2544-36.608 99.6864a51.1488 51.1488 0 0 1-48.0256 33.5872h-2.3552a51.2 51.2 0 0 1-47.104-38.0416l-68.2496-256a51.1488 51.1488 0 1 1 69.0688-60.4672l256 106.0352c21.1968 8.8064 33.9456 30.6176 31.232 53.4016z" fill="#FFFFFF" p-id="7993"></path></svg>