<?xml version="1.0" standalone="no"?><!DOCTYPE svg PUBLIC "-//W3C//DTD SVG 1.1//EN" "http://www.w3.org/Graphics/SVG/1.1/DTD/svg11.dtd"><svg t="1665579508023" class="icon" viewBox="0 0 1024 1024" version="1.1" xmlns="http://www.w3.org/2000/svg" p-id="8593" xmlns:xlink="http://www.w3.org/1999/xlink" width="200" height="200"><path d="M506.88-0.046548m72.407734 72.407734l362.038672 362.038672q72.407734 72.407734 0 144.815469l-362.038672 362.038672q-72.407734 72.407734-144.815468 0l-362.038672-362.038672q-72.407734-72.407734 0-144.815469l362.038672-362.038672q72.407734-72.407734 144.815468 0Z" fill="#F48996" p-id="8594"></path><path d="M700.16 383.1296l216.064 219.5968-173.824 178.3296-97.0752-95.488c-3.584-16.896 3.1744-31.5904 20.2752-44.032s32.768-58.0608 46.8992-136.9088l-12.288-121.4976z" fill="#C5616D" p-id="8595"></path><path d="M459.008 504.32a17.6128 17.6128 0 0 0 0 21.504 10.8544 10.8544 0 0 0 17.5616 0l16.0768-19.6608v189.0816c0 8.3456 11.776 15.9232 19.3536 15.9232s17.8176-7.5776 17.8176-15.9232V506.1632l16.0256 19.6608a10.8544 10.8544 0 0 0 17.5616 0 16.9984 16.9984 0 0 0 3.6352-10.752 16.9984 16.9984 0 0 0-3.584-10.752l-37.2736-45.4656c-4.864-5.9392-25.088-5.9392-29.9008 0l-37.2736 45.5168z" fill="#FFFFFF" p-id="8596"></path><path d="M512.4608 281.6c-93.696-0.8192-178.432 56.7296-213.8624 145.3568a237.3632 237.3632 0 0 0 53.0432 256.6656 19.3536 19.3536 0 0 0 25.7024-1.8432 20.4288 20.4288 0 0 0 1.8432-26.2656 196.5056 196.5056 0 0 1 0.1536-273.664 186.6752 186.6752 0 0 1 267.8784 0 196.5056 196.5056 0 0 1 0.1536 273.664 20.8896 20.8896 0 0 0-7.2704 20.0704 19.9168 19.9168 0 0 0 14.592 14.9504 18.3296 18.3296 0 0 0 19.712-6.912 236.2368 236.2368 0 0 0 50.5856-254.976c-35.1232-88.5248-119.0912-146.5856-212.5312-147.0464" fill="#FFFFFF" p-id="8597"></path><path d="M369.7152 456.0384c-24.064 54.4768-11.52 117.4016 31.8464 159.744a24.1152 24.1152 0 0 0 31.6416 0 20.992 20.992 0 0 0 6.8096-15.36 20.992 20.992 0 0 0-6.8096-15.4112A100.3008 100.3008 0 0 1 409.6 471.7568c16.896-38.8096 56.6784-64.1536 100.864-64.1536 44.1344 0 83.9168 25.344 100.8128 64.1536 16.896 38.8608 7.5264 83.5072-23.6544 113.2544a20.992 20.992 0 0 0 0 30.72 23.6544 23.6544 0 0 0 32.256 0c43.776-42.0864 56.9856-104.96 33.5872-159.8464-23.8592-54.272-79.616-89.6-141.4144-89.7536-62.1056 0-118.1696 35.3792-142.2848 89.9072z" fill="#FFFFFF" p-id="8598"></path></svg>