<?xml version="1.0" standalone="no"?><!DOCTYPE svg PUBLIC "-//W3C//DTD SVG 1.1//EN" "http://www.w3.org/Graphics/SVG/1.1/DTD/svg11.dtd"><svg t="1665579530200" class="icon" viewBox="0 0 1024 1024" version="1.1" xmlns="http://www.w3.org/2000/svg" p-id="8892" xmlns:xlink="http://www.w3.org/1999/xlink" width="200" height="200"><path d="M506.88-0.046548m72.407734 72.407734l362.038672 362.038672q72.407734 72.407734 0 144.815469l-362.038672 362.038672q-72.407734 72.407734-144.815468 0l-362.038672-362.038672q-72.407734-72.407734 0-144.815469l362.038672-362.038672q72.407734-72.407734 144.815468 0Z" fill="#FFBFC4" p-id="8893"></path><path d="M726.4768 327.6288L956.7232 563.2 614.4 900.8128l-168.8576-166.1952 91.904-79.3088c106.496 10.3936 163.84 10.3936 172.0832 0 2.2016-2.7648 7.8848-112.0256 16.896-327.68z" fill="#FF929B" p-id="8894"></path><path d="M751.616 308.224H527.872v-35.4816a16.128 16.128 0 0 0-32.1536 0v35.4816H272.0768a16.128 16.128 0 0 0 0 32.1536h26.7776v284.9792c0 24.32 19.7632 44.1344 44.1856 44.2368h124.928l-37.888 37.7856a16.128 16.128 0 0 0 0 22.6816 16.128 16.128 0 0 0 22.7328 0l54.4768-54.528c2.56-2.56 6.5536-2.56 9.1136 0l54.4768 54.528a16.0256 16.0256 0 1 0 22.6816-22.6816l-37.888-37.888h124.416a44.3392 44.3392 0 0 0 44.2368-44.2368V340.2752h27.2384a16.0256 16.0256 0 1 0 0-32.0512z m-59.4432 317.1328a12.032 12.032 0 0 1-12.032 12.032H343.04a12.032 12.032 0 0 1-12.032-12.032V340.2752h361.1648v285.0816z" fill="#FFFFFF" p-id="8895"></path><path d="M370.944 579.7376h280.576v-186.88h-280.576z" fill="#FFFFFF" p-id="8896"></path></svg>